<svg width="16" height="16" viewBox="0 0 16 16" fill="none" xmlns="http://www.w3.org/2000/svg">
<path d="M14.75 8.5925C14.632 9.86915 14.1529 11.0858 13.3687 12.1001C12.5845 13.1144 11.5276 13.8843 10.3218 14.3199C9.11592 14.7555 7.81098 14.8386 6.55961 14.5596C5.30825 14.2805 4.16223 13.6509 3.25566 12.7443C2.34908 11.8378 1.71944 10.6917 1.44042 9.44037C1.16139 8.18901 1.24452 6.88406 1.68008 5.67822C2.11564 4.47238 2.88561 3.41552 3.8999 2.63131C4.91418 1.8471 6.13083 1.36798 7.40749 1.25C6.66005 2.2612 6.30037 3.50709 6.39389 4.76106C6.4874 6.01503 7.02788 7.19379 7.91704 8.08295C8.80619 8.9721 9.98495 9.51259 11.2389 9.6061C12.4929 9.69961 13.7388 9.33994 14.75 8.5925V8.5925Z" stroke="var(--icon--color)" stroke-width="1.5" stroke-linecap="round" stroke-linejoin="round"/>
</svg>
