<svg width="12" height="18" viewBox="0 0 12 18" fill="none" xmlns="http://www.w3.org/2000/svg">
<path fill-rule="evenodd" clip-rule="evenodd" d="M4.5 2.0625C4.25136 2.0625 4.0129 2.16127 3.83709 2.33709C3.66127 2.5129 3.5625 2.75136 3.5625 3V3.9375H8.4375V3C8.4375 2.75136 8.33873 2.5129 8.16291 2.33709C7.9871 2.16127 7.74864 2.0625 7.5 2.0625H4.5ZM9.5625 3.9375V3C9.5625 2.45299 9.3452 1.92839 8.95841 1.54159C8.57161 1.1548 8.04701 0.9375 7.5 0.9375H4.5C3.95299 0.9375 3.42839 1.1548 3.04159 1.54159C2.6548 1.92839 2.4375 2.45299 2.4375 3V3.9375H0.75C0.43934 3.9375 0.1875 4.18934 0.1875 4.5V15C0.1875 15.547 0.404798 16.0716 0.791592 16.4584C1.17839 16.8452 1.70299 17.0625 2.25 17.0625H9.75C10.297 17.0625 10.8216 16.8452 11.2084 16.4584C11.5952 16.0716 11.8125 15.547 11.8125 15V4.5C11.8125 4.18934 11.5607 3.9375 11.25 3.9375H9.5625ZM1.3125 5.0625V15C1.3125 15.2486 1.41127 15.4871 1.58709 15.6629C1.7629 15.8387 2.00136 15.9375 2.25 15.9375H9.75C9.99864 15.9375 10.2371 15.8387 10.4129 15.6629C10.5887 15.4871 10.6875 15.2486 10.6875 15V5.0625H1.3125Z" fill="#F05454"/>
</svg>
