<svg width="21" height="20" viewBox="0 0 21 20" fill="none" xmlns="http://www.w3.org/2000/svg">
<path d="M19.5 10.79C19.3427 12.4922 18.7039 14.1144 17.6582 15.4668C16.6126 16.8192 15.2035 17.8458 13.5957 18.4265C11.9879 19.0073 10.248 19.1181 8.5795 18.7461C6.91102 18.3741 5.38299 17.5345 4.17423 16.3258C2.96546 15.117 2.12594 13.589 1.75391 11.9205C1.38188 10.252 1.49272 8.51208 2.07346 6.9043C2.6542 5.29651 3.68083 3.88737 5.03321 2.84175C6.3856 1.79614 8.0078 1.15731 9.71 1C8.71341 2.34827 8.23385 4.00945 8.35853 5.68141C8.48322 7.35338 9.20386 8.92506 10.3894 10.1106C11.5749 11.2961 13.1466 12.0168 14.8186 12.1415C16.4906 12.2662 18.1517 11.7866 19.5 10.79V10.79Z" stroke="#282846" stroke-width="2" stroke-linecap="round" stroke-linejoin="round"/>
</svg>
